<?xml version="1.0" encoding="UTF-8" standalone="no"?>
<!DOCTYPE svg PUBLIC "-//W3C//DTD SVG 1.1//EN"
 "http://www.w3.org/Graphics/SVG/1.1/DTD/svg11.dtd">
<!-- Generated by graphviz version 9.0.0 (20230911.1827)
 -->
<!-- Pages: 1 -->
<svg width="242pt" height="368pt"
 viewBox="0.00 0.00 242.00 368.00" xmlns="http://www.w3.org/2000/svg" xmlns:xlink="http://www.w3.org/1999/xlink">
<g id="graph0" class="graph" transform="scale(1 1) rotate(0) translate(4 364)">
<!-- Python Basics -->
<g id="node1" class="node">
<title>Python Basics</title>
<g id="a_node1"><a xlink:title="Click to learn more about Python Basics">
<defs>
<linearGradient id="node1_l_0" gradientUnits="userSpaceOnUse" x1="63" y1="-338.4" x2="171" y2="-338.4" >
<stop offset="0" style="stop-color:#f8f9fa;stop-opacity:1.;"/>
<stop offset="1" style="stop-color:#f2cb05;stop-opacity:1.;"/>
</linearGradient>
</defs>
<polygon fill="url(#node1_l_0)" stroke="black" stroke-width="2" points="171,-360 63,-360 63,-316.8 171,-316.8 171,-360"/>
<text text-anchor="start" x="70.12" y="-333.35" font-family="Arial" font-size="14.00" fill="#333333">Python Basic...</text>
</a>
</g>
</g>
<!-- Intermediate Python -->
<g id="node2" class="node">
<title>Intermediate Python</title>
<g id="a_node2"><a xlink:title="Click to learn more about Intermediate Python">
<defs>
<linearGradient id="node2_l_1" gradientUnits="userSpaceOnUse" x1="63" y1="-259.2" x2="171" y2="-259.2" >
<stop offset="0" style="stop-color:#f8f9fa;stop-opacity:1.;"/>
<stop offset="1" style="stop-color:#f2cb05;stop-opacity:1.;"/>
</linearGradient>
</defs>
<polygon fill="url(#node2_l_1)" stroke="black" stroke-width="2" points="171,-280.8 63,-280.8 63,-237.6 171,-237.6 171,-280.8"/>
<text text-anchor="start" x="71.62" y="-254.15" font-family="Arial" font-size="14.00" fill="#333333">Intermediate...</text>
</a>
</g>
</g>
<!-- Python Basics&#45;&gt;Intermediate Python -->
<g id="edge1" class="edge">
<title>Python Basics&#45;&gt;Intermediate Python</title>
<path fill="none" stroke="#cccccc" stroke-width="2" d="M117,-315.9C117,-309.04 117,-301.27 117,-293.77"/>
<polygon fill="#cccccc" stroke="#cccccc" stroke-width="2" points="117,-284.03 121.5,-294.03 117.5,-286.59 117.5,-294.03 117,-294.03 116.5,-294.03 116.5,-286.59 112.5,-294.03 117,-284.03"/>
</g>
<!-- Advanced Python -->
<g id="node3" class="node">
<title>Advanced Python</title>
<g id="a_node3"><a xlink:title="Click to learn more about Advanced Python">
<defs>
<linearGradient id="node3_l_2" gradientUnits="userSpaceOnUse" x1="0" y1="-180" x2="108" y2="-180" >
<stop offset="0" style="stop-color:#f8f9fa;stop-opacity:1.;"/>
<stop offset="1" style="stop-color:#cee3f6;stop-opacity:1.;"/>
</linearGradient>
</defs>
<polygon fill="url(#node3_l_2)" stroke="black" stroke-width="2" points="108,-201.6 0,-201.6 0,-158.4 108,-158.4 108,-201.6"/>
<text text-anchor="start" x="4.5" y="-174.95" font-family="Arial" font-size="14.00" fill="#333333">Advanced Pyt...</text>
</a>
</g>
</g>
<!-- Intermediate Python&#45;&gt;Advanced Python -->
<g id="edge2" class="edge">
<title>Intermediate Python&#45;&gt;Advanced Python</title>
<path fill="none" stroke="#cccccc" stroke-width="2" d="M99.45,-236.7C93.17,-229 85.96,-220.17 79.17,-211.84"/>
<polygon fill="#cccccc" stroke="#cccccc" stroke-width="2" points="73,-204.28 82.8,-209.18 75,-205.95 79.71,-211.71 79.32,-212.02 78.93,-212.34 74.23,-206.58 75.83,-214.87 73,-204.28"/>
</g>
<!-- Data Structures -->
<g id="node4" class="node">
<title>Data Structures</title>
<g id="a_node4"><a xlink:title="Click to learn more about Data Structures">
<defs>
<linearGradient id="node4_l_3" gradientUnits="userSpaceOnUse" x1="126" y1="-180" x2="234" y2="-180" >
<stop offset="0" style="stop-color:#f8f9fa;stop-opacity:1.;"/>
<stop offset="1" style="stop-color:#f2cb05;stop-opacity:1.;"/>
</linearGradient>
</defs>
<polygon fill="url(#node4_l_3)" stroke="black" stroke-width="2" points="234,-201.6 126,-201.6 126,-158.4 234,-158.4 234,-201.6"/>
<text text-anchor="start" x="135.75" y="-174.95" font-family="Arial" font-size="14.00" fill="#333333">Data Structu...</text>
</a>
</g>
</g>
<!-- Intermediate Python&#45;&gt;Data Structures -->
<g id="edge3" class="edge">
<title>Intermediate Python&#45;&gt;Data Structures</title>
<path fill="none" stroke="#cccccc" stroke-width="2" d="M134.55,-236.7C140.83,-229 148.04,-220.17 154.83,-211.84"/>
<polygon fill="#cccccc" stroke="#cccccc" stroke-width="2" points="161,-204.28 158.17,-214.87 159.77,-206.58 155.07,-212.34 154.68,-212.02 154.29,-211.71 159,-205.95 151.2,-209.18 161,-204.28"/>
</g>
<!-- Algorithms -->
<g id="node5" class="node">
<title>Algorithms</title>
<g id="a_node5"><a xlink:title="Click to learn more about Algorithms">
<defs>
<linearGradient id="node5_l_4" gradientUnits="userSpaceOnUse" x1="85" y1="-100.8" x2="193" y2="-100.8" >
<stop offset="0" style="stop-color:#f8f9fa;stop-opacity:1.;"/>
<stop offset="1" style="stop-color:#f2cb05;stop-opacity:1.;"/>
</linearGradient>
</defs>
<polygon fill="url(#node5_l_4)" stroke="black" stroke-width="2" points="193,-122.4 85,-122.4 85,-79.2 193,-79.2 193,-122.4"/>
<text text-anchor="start" x="105.25" y="-95.75" font-family="Arial" font-size="14.00" fill="#333333">Algorithms</text>
</a>
</g>
</g>
<!-- Data Structures&#45;&gt;Algorithms -->
<g id="edge4" class="edge">
<title>Data Structures&#45;&gt;Algorithms</title>
<path fill="none" stroke="#cccccc" stroke-width="2" d="M168.58,-157.5C164.71,-150.22 160.31,-141.92 156.1,-134"/>
<polygon fill="#cccccc" stroke="#cccccc" stroke-width="2" points="151.5,-125.34 160.17,-132.06 153.15,-127.37 156.63,-133.94 156.19,-134.17 155.75,-134.41 152.26,-127.84 152.22,-136.28 151.5,-125.34"/>
</g>
<!-- Machine Learning -->
<g id="node6" class="node">
<title>Machine Learning</title>
<g id="a_node6"><a xlink:title="Click to learn more about Machine Learning">
<defs>
<linearGradient id="node6_l_5" gradientUnits="userSpaceOnUse" x1="126" y1="-21.6" x2="234" y2="-21.6" >
<stop offset="0" style="stop-color:#f8f9fa;stop-opacity:1.;"/>
<stop offset="1" style="stop-color:#cee3f6;stop-opacity:1.;"/>
</linearGradient>
</defs>
<polygon fill="url(#node6_l_5)" stroke="black" stroke-width="2" points="234,-43.2 126,-43.2 126,0 234,0 234,-43.2"/>
<text text-anchor="start" x="132" y="-16.55" font-family="Arial" font-size="14.00" fill="#333333">Machine Lear...</text>
</a>
</g>
</g>
<!-- Data Structures&#45;&gt;Machine Learning -->
<g id="edge5" class="edge">
<title>Data Structures&#45;&gt;Machine Learning</title>
<path fill="none" stroke="#cccccc" stroke-width="2" d="M190.52,-157.52C195.02,-147.17 199.75,-134.42 202,-122.4 205.54,-103.53 205.54,-98.07 202,-79.2 200.52,-71.31 197.98,-63.11 195.13,-55.48"/>
<polygon fill="#cccccc" stroke="#cccccc" stroke-width="2" points="191.43,-46.34 199.36,-53.93 192.86,-48.53 195.65,-55.43 195.18,-55.61 194.72,-55.8 191.93,-48.91 191.01,-57.3 191.43,-46.34"/>
</g>
<!-- Algorithms&#45;&gt;Machine Learning -->
<g id="edge6" class="edge">
<title>Algorithms&#45;&gt;Machine Learning</title>
<path fill="none" stroke="#cccccc" stroke-width="2" d="M150.42,-78.3C154.29,-71.02 158.69,-62.72 162.9,-54.8"/>
<polygon fill="#cccccc" stroke="#cccccc" stroke-width="2" points="167.5,-46.14 166.78,-57.08 166.74,-48.64 163.25,-55.21 162.81,-54.97 162.37,-54.74 165.85,-48.17 158.83,-52.86 167.5,-46.14"/>
</g>
</g>
</svg>
