<?xml version="1.0" encoding="UTF-8" standalone="no"?>
<!DOCTYPE svg PUBLIC "-//W3C//DTD SVG 1.1//EN"
 "http://www.w3.org/Graphics/SVG/1.1/DTD/svg11.dtd">
<!-- Generated by graphviz version 9.0.0 (20230911.1827)
 -->
<!-- Pages: 1 -->
<svg width="242pt" height="368pt"
 viewBox="0.00 0.00 242.00 368.00" xmlns="http://www.w3.org/2000/svg" xmlns:xlink="http://www.w3.org/1999/xlink">
<g id="graph0" class="graph" transform="scale(1 1) rotate(0) translate(4 364)">
<!-- Python Basics -->
<g id="node1" class="node">
<title>Python Basics</title>
<g id="a_node1"><a xlink:title="Click to learn more about Python Basics">
<defs>
<linearGradient id="node1_l_0" gradientUnits="userSpaceOnUse" x1="117" y1="-316.8" x2="117" y2="-360" >
<stop offset="0" style="stop-color:#f8f9fa;stop-opacity:1.;"/>
<stop offset="1" style="stop-color:#f2cb05;stop-opacity:1.;"/>
</linearGradient>
</defs>
<polygon fill="url(#node1_l_0)" stroke="black" points="171,-360 63,-360 63,-316.8 171,-316.8 171,-360"/>
<text text-anchor="middle" x="117" y="-333.35" font-family="Arial" font-size="14.00" fill="#333333">Python Basics</text>
</a>
</g>
</g>
<!-- Intermediate Python -->
<g id="node2" class="node">
<title>Intermediate Python</title>
<g id="a_node2"><a xlink:title="Click to learn more about Intermediate Python">
<defs>
<linearGradient id="node2_l_1" gradientUnits="userSpaceOnUse" x1="117" y1="-237.6" x2="117" y2="-280.8" >
<stop offset="0" style="stop-color:#f8f9fa;stop-opacity:1.;"/>
<stop offset="1" style="stop-color:#f2cb05;stop-opacity:1.;"/>
</linearGradient>
</defs>
<polygon fill="url(#node2_l_1)" stroke="black" points="171,-280.8 63,-280.8 63,-237.6 171,-237.6 171,-280.8"/>
<text text-anchor="middle" x="117" y="-254.15" font-family="Arial" font-size="14.00" fill="#333333">Intermediate Python</text>
</a>
</g>
</g>
<!-- Python Basics&#45;&gt;Intermediate Python -->
<g id="edge1" class="edge">
<title>Python Basics&#45;&gt;Intermediate Python</title>
<path fill="none" stroke="#cccccc" stroke-width="2" d="M117,-316.3C117,-309.33 117,-301.38 117,-293.71"/>
<polygon fill="#cccccc" stroke="#cccccc" stroke-width="2" points="117,-283.71 121.5,-293.71 117.5,-286.27 117.5,-293.71 117,-293.71 116.5,-293.71 116.5,-286.27 112.5,-293.71 117,-283.71"/>
</g>
<!-- Advanced Python -->
<g id="node3" class="node">
<title>Advanced Python</title>
<g id="a_node3"><a xlink:title="Click to learn more about Advanced Python">
<defs>
<linearGradient id="node3_l_2" gradientUnits="userSpaceOnUse" x1="54" y1="-158.4" x2="54" y2="-201.6" >
<stop offset="0" style="stop-color:#f8f9fa;stop-opacity:1.;"/>
<stop offset="1" style="stop-color:#cee3f6;stop-opacity:1.;"/>
</linearGradient>
</defs>
<polygon fill="url(#node3_l_2)" stroke="black" points="108,-201.6 0,-201.6 0,-158.4 108,-158.4 108,-201.6"/>
<text text-anchor="middle" x="54" y="-174.95" font-family="Arial" font-size="14.00" fill="#333333">Advanced Python</text>
</a>
</g>
</g>
<!-- Intermediate Python&#45;&gt;Advanced Python -->
<g id="edge2" class="edge">
<title>Intermediate Python&#45;&gt;Advanced Python</title>
<path fill="none" stroke="#cccccc" stroke-width="2" d="M99.78,-237.1C93.33,-229.19 85.85,-220.03 78.84,-211.44"/>
<polygon fill="#cccccc" stroke="#cccccc" stroke-width="2" points="72.73,-203.96 82.54,-208.86 74.74,-205.63 79.44,-211.39 79.06,-211.71 78.67,-212.02 73.97,-206.26 75.57,-214.55 72.73,-203.96"/>
</g>
<!-- Data Structures -->
<g id="node4" class="node">
<title>Data Structures</title>
<g id="a_node4"><a xlink:title="Click to learn more about Data Structures">
<defs>
<linearGradient id="node4_l_3" gradientUnits="userSpaceOnUse" x1="180" y1="-158.4" x2="180" y2="-201.6" >
<stop offset="0" style="stop-color:#f8f9fa;stop-opacity:1.;"/>
<stop offset="1" style="stop-color:#f2cb05;stop-opacity:1.;"/>
</linearGradient>
</defs>
<polygon fill="url(#node4_l_3)" stroke="black" points="234,-201.6 126,-201.6 126,-158.4 234,-158.4 234,-201.6"/>
<text text-anchor="middle" x="180" y="-174.95" font-family="Arial" font-size="14.00" fill="#333333">Data Structures</text>
</a>
</g>
</g>
<!-- Intermediate Python&#45;&gt;Data Structures -->
<g id="edge3" class="edge">
<title>Intermediate Python&#45;&gt;Data Structures</title>
<path fill="none" stroke="#cccccc" stroke-width="2" d="M134.22,-237.1C140.67,-229.19 148.15,-220.03 155.16,-211.44"/>
<polygon fill="#cccccc" stroke="#cccccc" stroke-width="2" points="161.27,-203.96 158.43,-214.55 160.03,-206.26 155.33,-212.02 154.94,-211.71 154.56,-211.39 159.26,-205.63 151.46,-208.86 161.27,-203.96"/>
</g>
<!-- Algorithms -->
<g id="node5" class="node">
<title>Algorithms</title>
<g id="a_node5"><a xlink:title="Click to learn more about Algorithms">
<defs>
<linearGradient id="node5_l_4" gradientUnits="userSpaceOnUse" x1="139" y1="-79.2" x2="139" y2="-122.4" >
<stop offset="0" style="stop-color:#f8f9fa;stop-opacity:1.;"/>
<stop offset="1" style="stop-color:#f2cb05;stop-opacity:1.;"/>
</linearGradient>
</defs>
<polygon fill="url(#node5_l_4)" stroke="black" points="193,-122.4 85,-122.4 85,-79.2 193,-79.2 193,-122.4"/>
<text text-anchor="middle" x="139" y="-95.75" font-family="Arial" font-size="14.00" fill="#333333">Algorithms</text>
</a>
</g>
</g>
<!-- Data Structures&#45;&gt;Algorithms -->
<g id="edge4" class="edge">
<title>Data Structures&#45;&gt;Algorithms</title>
<path fill="none" stroke="#cccccc" stroke-width="2" d="M168.8,-157.9C164.82,-150.42 160.25,-141.81 155.9,-133.63"/>
<polygon fill="#cccccc" stroke="#cccccc" stroke-width="2" points="151.33,-125.02 160,-131.74 152.98,-127.05 156.46,-133.62 156.02,-133.85 155.58,-134.09 152.09,-127.52 152.05,-135.96 151.33,-125.02"/>
</g>
<!-- Machine Learning -->
<g id="node6" class="node">
<title>Machine Learning</title>
<g id="a_node6"><a xlink:title="Click to learn more about Machine Learning">
<defs>
<linearGradient id="node6_l_5" gradientUnits="userSpaceOnUse" x1="180" y1="0" x2="180" y2="-43.2" >
<stop offset="0" style="stop-color:#f8f9fa;stop-opacity:1.;"/>
<stop offset="1" style="stop-color:#cee3f6;stop-opacity:1.;"/>
</linearGradient>
</defs>
<polygon fill="url(#node6_l_5)" stroke="black" points="234,-43.2 126,-43.2 126,0 234,0 234,-43.2"/>
<text text-anchor="middle" x="180" y="-16.55" font-family="Arial" font-size="14.00" fill="#333333">Machine Learning</text>
</a>
</g>
</g>
<!-- Data Structures&#45;&gt;Machine Learning -->
<g id="edge5" class="edge">
<title>Data Structures&#45;&gt;Machine Learning</title>
<path fill="none" stroke="#cccccc" stroke-width="2" d="M190.29,-158.05C194.85,-147.61 199.71,-134.63 202,-122.4 205.54,-103.53 205.54,-98.07 202,-79.2 200.48,-71.08 197.83,-62.63 194.88,-54.81"/>
<polygon fill="#cccccc" stroke="#cccccc" stroke-width="2" points="191.21,-45.81 199.15,-53.37 192.64,-47.99 195.45,-54.88 194.98,-55.07 194.52,-55.26 191.71,-48.37 190.82,-56.77 191.21,-45.81"/>
</g>
<!-- Algorithms&#45;&gt;Machine Learning -->
<g id="edge6" class="edge">
<title>Algorithms&#45;&gt;Machine Learning</title>
<path fill="none" stroke="#cccccc" stroke-width="2" d="M150.2,-78.7C154.18,-71.22 158.75,-62.61 163.1,-54.43"/>
<polygon fill="#cccccc" stroke="#cccccc" stroke-width="2" points="167.67,-45.82 166.95,-56.76 166.91,-48.32 163.42,-54.89 162.98,-54.65 162.54,-54.42 166.02,-47.85 159,-52.54 167.67,-45.82"/>
</g>
</g>
</svg>
