<?xml version="1.0" encoding="UTF-8" standalone="no"?>
<!DOCTYPE svg PUBLIC "-//W3C//DTD SVG 1.1//EN"
 "http://www.w3.org/Graphics/SVG/1.1/DTD/svg11.dtd">
<!-- Generated by graphviz version 9.0.0 (20230911.1827)
 -->
<!-- Pages: 1 -->
<svg width="1946pt" height="635pt"
 viewBox="0.00 0.00 1946.12 635.00" xmlns="http://www.w3.org/2000/svg" xmlns:xlink="http://www.w3.org/1999/xlink">
<g id="graph0" class="graph" transform="scale(1 1) rotate(0) translate(4 631)">
<!-- Data Structures and Algorithms -->
<g id="node1" class="node">
<title>Data Structures and Algorithms</title>
<g id="a_node1"><a xlink:title="Click to learn more about Data Structures and Algorithms">
<defs>
<linearGradient id="node1_l_0" gradientUnits="userSpaceOnUse" x1="973.25" y1="-486" x2="973.25" y2="-538.5" >
<stop offset="0" style="stop-color:#f8f9fa;stop-opacity:1.;"/>
<stop offset="1" style="stop-color:#f2cb05;stop-opacity:1.;"/>
</linearGradient>
</defs>
<polygon fill="url(#node1_l_0)" stroke="black" stroke-width="2" points="1089.12,-538.5 857.38,-538.5 857.38,-486 1089.12,-486 1089.12,-538.5"/>
<text text-anchor="middle" x="973.25" y="-507.2" font-family="Arial" font-size="14.00" fill="#333333">Data Structures and Algorithms</text>
</a>
</g>
</g>
<!-- Database Systems -->
<g id="node3" class="node">
<title>Database Systems</title>
<g id="a_node3"><a xlink:title="Click to learn more about Database Systems">
<defs>
<linearGradient id="node3_l_1" gradientUnits="userSpaceOnUse" x1="1243.25" y1="-381" x2="1243.25" y2="-433.5" >
<stop offset="0" style="stop-color:#f8f9fa;stop-opacity:1.;"/>
<stop offset="1" style="stop-color:#f2cb05;stop-opacity:1.;"/>
</linearGradient>
</defs>
<polygon fill="url(#node3_l_1)" stroke="black" stroke-width="2" points="1321.25,-433.5 1165.25,-433.5 1165.25,-381 1321.25,-381 1321.25,-433.5"/>
<text text-anchor="middle" x="1243.25" y="-402.2" font-family="Arial" font-size="14.00" fill="#333333">Database Systems</text>
</a>
</g>
</g>
<!-- Data Structures and Algorithms&#45;&gt;Database Systems -->
<g id="edge2" class="edge">
<title>Data Structures and Algorithms&#45;&gt;Database Systems</title>
<path fill="none" stroke="#666666" stroke-width="2" d="M1058.78,-485.06C1089.79,-474.93 1124.89,-462.71 1156.25,-450 1164.06,-446.83 1172.16,-443.3 1180.13,-439.67"/>
<polygon fill="#666666" stroke="#666666" stroke-width="2" points="1189.07,-435.51 1181.89,-443.81 1186.95,-437.05 1180.21,-440.18 1180,-439.73 1179.79,-439.27 1186.53,-436.14 1178.1,-435.65 1189.07,-435.51"/>
</g>
<!-- Big Data Technologies -->
<g id="node6" class="node">
<title>Big Data Technologies</title>
<g id="a_node6"><a xlink:title="Click to learn more about Big Data Technologies">
<defs>
<linearGradient id="node6_l_2" gradientUnits="userSpaceOnUse" x1="403.25" y1="-381" x2="403.25" y2="-433.5" >
<stop offset="0" style="stop-color:#f8f9fa;stop-opacity:1.;"/>
<stop offset="1" style="stop-color:#f2cb05;stop-opacity:1.;"/>
</linearGradient>
</defs>
<polygon fill="url(#node6_l_2)" stroke="black" stroke-width="2" points="493.25,-433.5 313.25,-433.5 313.25,-381 493.25,-381 493.25,-433.5"/>
<text text-anchor="middle" x="403.25" y="-402.2" font-family="Arial" font-size="14.00" fill="#333333">Big Data Technologies</text>
</a>
</g>
</g>
<!-- Data Structures and Algorithms&#45;&gt;Big Data Technologies -->
<g id="edge4" class="edge">
<title>Data Structures and Algorithms&#45;&gt;Big Data Technologies</title>
<path fill="none" stroke="#666666" stroke-width="2" d="M856.86,-504.87C760.48,-497.52 620.65,-482.03 502.25,-450 491.47,-447.08 480.32,-443.25 469.57,-439.09"/>
<polygon fill="#666666" stroke="#666666" stroke-width="2" points="460.34,-435.38 471.3,-434.93 462.91,-435.87 469.81,-438.64 469.62,-439.11 469.43,-439.57 462.53,-436.8 467.94,-443.28 460.34,-435.38"/>
</g>
<!-- Data Visualization -->
<g id="node12" class="node">
<title>Data Visualization</title>
<g id="a_node12"><a xlink:title="Click to learn more about Data Visualization">
<defs>
<linearGradient id="node12_l_3" gradientUnits="userSpaceOnUse" x1="1413.25" y1="-381" x2="1413.25" y2="-433.5" >
<stop offset="0" style="stop-color:#f8f9fa;stop-opacity:1.;"/>
<stop offset="1" style="stop-color:#f2cb05;stop-opacity:1.;"/>
</linearGradient>
</defs>
<polygon fill="url(#node12_l_3)" stroke="black" stroke-width="2" points="1486.75,-433.5 1339.75,-433.5 1339.75,-381 1486.75,-381 1486.75,-433.5"/>
<text text-anchor="middle" x="1413.25" y="-402.2" font-family="Arial" font-size="14.00" fill="#333333">Data Visualization</text>
</a>
</g>
</g>
<!-- Data Structures and Algorithms&#45;&gt;Data Visualization -->
<g id="edge9" class="edge">
<title>Data Structures and Algorithms&#45;&gt;Data Visualization</title>
<path fill="none" stroke="#666666" stroke-width="2" d="M1089.91,-500.07C1160.7,-491.13 1252.15,-475.71 1330.25,-450 1338.88,-447.16 1347.73,-443.55 1356.28,-439.64"/>
<polygon fill="#666666" stroke="#666666" stroke-width="2" points="1365.12,-435.43 1358.03,-443.8 1363.02,-436.98 1356.31,-440.19 1356.09,-439.73 1355.88,-439.28 1362.59,-436.08 1354.16,-435.67 1365.12,-435.43"/>
</g>
<!-- Data Engineering Tools -->
<g id="node20" class="node">
<title>Data Engineering Tools</title>
<g id="a_node20"><a xlink:title="Click to learn more about Data Engineering Tools">
<defs>
<linearGradient id="node20_l_4" gradientUnits="userSpaceOnUse" x1="829.25" y1="-364.5" x2="829.25" y2="-450" >
<stop offset="0" style="stop-color:#f8f9fa;stop-opacity:1.;"/>
<stop offset="1" style="stop-color:#cee3f6;stop-opacity:1.;"/>
</linearGradient>
</defs>
<polygon fill="url(#node20_l_4)" stroke="black" stroke-width="2" points="1147.62,-450 510.88,-450 510.88,-364.5 1147.62,-364.5 1147.62,-450"/>
<text text-anchor="middle" x="829.25" y="-418.7" font-family="Arial" font-size="14.00" fill="#333333">Data Engineering Tools</text>
<text text-anchor="middle" x="829.25" y="-402.2" font-family="Arial" font-size="14.00" fill="#333333">Prerequisite: [&#39;Programming Fundamentals&#39;, &#39;Data Structures and Algorithms&#39;]</text>
<text text-anchor="middle" x="829.25" y="-385.7" font-family="Arial" font-size="14.00" fill="#333333">Topics: Apache Airflow, Apache Spark, AWS Glue, Google Cloud Dataflow, Azure Data Factory</text>
</a>
</g>
</g>
<!-- Data Structures and Algorithms&#45;&gt;Data Engineering Tools -->
<g id="edge20" class="edge">
<title>Data Structures and Algorithms&#45;&gt;Data Engineering Tools</title>
<path fill="none" stroke="#666666" stroke-width="2" d="M936.91,-485.26C925.29,-476.95 912.02,-467.45 898.85,-458.03"/>
<polygon fill="#666666" stroke="#666666" stroke-width="2" points="890.81,-452.28 901.56,-454.44 893.18,-453.37 899.23,-457.69 898.94,-458.1 898.65,-458.51 892.6,-454.18 896.32,-461.76 890.81,-452.28"/>
</g>
<!-- Programming Fundamentals -->
<g id="node2" class="node">
<title>Programming Fundamentals</title>
<g id="a_node2"><a xlink:title="Click to learn more about Programming Fundamentals">
<defs>
<linearGradient id="node2_l_5" gradientUnits="userSpaceOnUse" x1="901.25" y1="-574.5" x2="901.25" y2="-627" >
<stop offset="0" style="stop-color:#f8f9fa;stop-opacity:1.;"/>
<stop offset="1" style="stop-color:#f2cb05;stop-opacity:1.;"/>
</linearGradient>
</defs>
<polygon fill="url(#node2_l_5)" stroke="black" stroke-width="2" points="1008.5,-627 794,-627 794,-574.5 1008.5,-574.5 1008.5,-627"/>
<text text-anchor="middle" x="901.25" y="-595.7" font-family="Arial" font-size="14.00" fill="#333333">Programming Fundamentals</text>
</a>
</g>
</g>
<!-- Programming Fundamentals&#45;&gt;Data Structures and Algorithms -->
<g id="edge1" class="edge">
<title>Programming Fundamentals&#45;&gt;Data Structures and Algorithms</title>
<path fill="none" stroke="#666666" stroke-width="2" d="M922.85,-573.8C929.34,-566 936.58,-557.3 943.5,-548.99"/>
<polygon fill="#666666" stroke="#666666" stroke-width="2" points="949.86,-541.36 946.92,-551.92 948.6,-543.65 943.84,-549.36 943.46,-549.04 943.07,-548.72 947.83,-543.01 940,-546.16 949.86,-541.36"/>
</g>
<!-- Programming Fundamentals&#45;&gt;Data Engineering Tools -->
<g id="edge19" class="edge">
<title>Programming Fundamentals&#45;&gt;Data Engineering Tools</title>
<path fill="none" stroke="#666666" stroke-width="2" d="M872.99,-573.78C863.65,-563.67 854.16,-551.42 848.25,-538.5 837.52,-515.05 832.56,-486.97 830.37,-462.9"/>
<polygon fill="#666666" stroke="#666666" stroke-width="2" points="829.64,-453.15 834.87,-462.78 830.33,-455.67 830.88,-463.08 830.38,-463.12 829.88,-463.16 829.33,-455.74 825.89,-463.46 829.64,-453.15"/>
</g>
<!-- Data Quality and Governance -->
<g id="node16" class="node">
<title>Data Quality and Governance</title>
<g id="a_node16"><a xlink:title="Click to learn more about Data Quality and Governance">
<defs>
<linearGradient id="node16_l_6" gradientUnits="userSpaceOnUse" x1="1036.25" y1="0" x2="1036.25" y2="-85.5" >
<stop offset="0" style="stop-color:#f8f9fa;stop-opacity:1.;"/>
<stop offset="1" style="stop-color:#cee3f6;stop-opacity:1.;"/>
</linearGradient>
</defs>
<polygon fill="url(#node16_l_6)" stroke="black" stroke-width="2" points="1364.38,-85.5 708.12,-85.5 708.12,0 1364.38,0 1364.38,-85.5"/>
<text text-anchor="middle" x="1036.25" y="-54.2" font-family="Arial" font-size="14.00" fill="#333333">Data Quality and Governance</text>
<text text-anchor="middle" x="1036.25" y="-37.7" font-family="Arial" font-size="14.00" fill="#333333">Prerequisite: [&#39;Database Systems&#39;, &#39;Data Warehousing&#39;]</text>
<text text-anchor="middle" x="1036.25" y="-21.2" font-family="Arial" font-size="14.00" fill="#333333">Topics: Data Quality Dimensions, Data Governance Frameworks, Data Quality Tools, Data Profiling</text>
</a>
</g>
</g>
<!-- Database Systems&#45;&gt;Data Quality and Governance -->
<g id="edge13" class="edge">
<title>Database Systems&#45;&gt;Data Quality and Governance</title>
<path fill="none" stroke="#666666" stroke-width="2" d="M1251.72,-380.16C1267.46,-326.3 1294.87,-201.16 1239.25,-121.5 1231.8,-110.83 1222.67,-101.62 1212.46,-93.68"/>
<polygon fill="#666666" stroke="#666666" stroke-width="2" points="1204.33,-87.87 1215.08,-90.03 1206.71,-88.95 1212.76,-93.28 1212.47,-93.69 1212.17,-94.09 1206.13,-89.76 1209.85,-97.35 1204.33,-87.87"/>
</g>
<!-- Data Warehousing -->
<g id="node17" class="node">
<title>Data Warehousing</title>
<g id="a_node17"><a xlink:title="Click to learn more about Data Warehousing">
<defs>
<linearGradient id="node17_l_7" gradientUnits="userSpaceOnUse" x1="815.25" y1="-121.5" x2="815.25" y2="-207" >
<stop offset="0" style="stop-color:#f8f9fa;stop-opacity:1.;"/>
<stop offset="1" style="stop-color:#cee3f6;stop-opacity:1.;"/>
</linearGradient>
</defs>
<polygon fill="url(#node17_l_7)" stroke="black" stroke-width="2" points="1230.38,-207 400.12,-207 400.12,-121.5 1230.38,-121.5 1230.38,-207"/>
<text text-anchor="middle" x="815.25" y="-175.7" font-family="Arial" font-size="14.00" fill="#333333">Data Warehousing</text>
<text text-anchor="middle" x="815.25" y="-159.2" font-family="Arial" font-size="14.00" fill="#333333">Prerequisite: [&#39;Database Systems&#39;, &#39;Data Integration&#39;]</text>
<text text-anchor="middle" x="815.25" y="-142.7" font-family="Arial" font-size="14.00" fill="#333333">Topics: Data Warehouse Concepts, Data Warehouse Architecture, Data Warehouse Design, Data Warehouse Implementation</text>
</a>
</g>
</g>
<!-- Database Systems&#45;&gt;Data Warehousing -->
<g id="edge21" class="edge">
<title>Database Systems&#45;&gt;Data Warehousing</title>
<path fill="none" stroke="#666666" stroke-width="2" d="M1196.63,-380C1125.95,-340.2 990.5,-263.93 901.52,-213.83"/>
<polygon fill="#666666" stroke="#666666" stroke-width="2" points="893.03,-209.05 903.95,-210.03 895.51,-209.87 901.99,-213.52 901.74,-213.95 901.5,-214.39 895.02,-210.74 899.53,-217.87 893.03,-209.05"/>
</g>
<!-- Data Integration -->
<g id="node18" class="node">
<title>Data Integration</title>
<g id="a_node18"><a xlink:title="Click to learn more about Data Integration">
<defs>
<linearGradient id="node18_l_8" gradientUnits="userSpaceOnUse" x1="815.25" y1="-259.5" x2="815.25" y2="-312" >
<stop offset="0" style="stop-color:#f8f9fa;stop-opacity:1.;"/>
<stop offset="1" style="stop-color:#f2cb05;stop-opacity:1.;"/>
</linearGradient>
</defs>
<polygon fill="url(#node18_l_8)" stroke="black" stroke-width="2" points="883.12,-312 747.38,-312 747.38,-259.5 883.12,-259.5 883.12,-312"/>
<text text-anchor="middle" x="815.25" y="-280.7" font-family="Arial" font-size="14.00" fill="#333333">Data Integration</text>
</a>
</g>
</g>
<!-- Database Systems&#45;&gt;Data Integration -->
<g id="edge15" class="edge">
<title>Database Systems&#45;&gt;Data Integration</title>
<path fill="none" stroke="#666666" stroke-width="2" d="M1193.45,-380.01C1181.48,-374.36 1168.59,-368.81 1156.25,-364.5 1069.58,-334.25 966.36,-312.62 896.36,-299.97"/>
<polygon fill="#666666" stroke="#666666" stroke-width="2" points="886.52,-298.21 897.15,-295.54 889.13,-298.17 896.45,-299.48 896.36,-299.97 896.28,-300.46 888.96,-299.16 895.57,-304.4 886.52,-298.21"/>
</g>
<!-- Operating Systems -->
<g id="node4" class="node">
<title>Operating Systems</title>
<g id="a_node4"><a xlink:title="Click to learn more about Operating Systems">
<defs>
<linearGradient id="node4_l_9" gradientUnits="userSpaceOnUse" x1="89.25" y1="-486" x2="89.25" y2="-538.5" >
<stop offset="0" style="stop-color:#f8f9fa;stop-opacity:1.;"/>
<stop offset="1" style="stop-color:#f2cb05;stop-opacity:1.;"/>
</linearGradient>
</defs>
<polygon fill="url(#node4_l_9)" stroke="black" stroke-width="2" points="168,-538.5 10.5,-538.5 10.5,-486 168,-486 168,-538.5"/>
<text text-anchor="middle" x="89.25" y="-507.2" font-family="Arial" font-size="14.00" fill="#333333">Operating Systems</text>
</a>
</g>
</g>
<!-- Cloud Computing -->
<g id="node14" class="node">
<title>Cloud Computing</title>
<g id="a_node14"><a xlink:title="Click to learn more about Cloud Computing">
<defs>
<linearGradient id="node14_l_10" gradientUnits="userSpaceOnUse" x1="222.25" y1="-381" x2="222.25" y2="-433.5" >
<stop offset="0" style="stop-color:#f8f9fa;stop-opacity:1.;"/>
<stop offset="1" style="stop-color:#f2cb05;stop-opacity:1.;"/>
</linearGradient>
</defs>
<polygon fill="url(#node14_l_10)" stroke="black" stroke-width="2" points="295.38,-433.5 149.12,-433.5 149.12,-381 295.38,-381 295.38,-433.5"/>
<text text-anchor="middle" x="222.25" y="-402.2" font-family="Arial" font-size="14.00" fill="#333333">Cloud Computing</text>
</a>
</g>
</g>
<!-- Operating Systems&#45;&gt;Cloud Computing -->
<g id="edge11" class="edge">
<title>Operating Systems&#45;&gt;Cloud Computing</title>
<path fill="none" stroke="#666666" stroke-width="2" d="M122.81,-485.26C139.82,-472.08 160.68,-455.93 178.89,-441.83"/>
<polygon fill="#666666" stroke="#666666" stroke-width="2" points="186.77,-435.73 181.62,-445.41 185.05,-437.69 179.17,-442.24 178.87,-441.85 178.56,-441.45 184.44,-436.9 176.11,-438.29 186.77,-435.73"/>
</g>
<!-- Computer Architecture -->
<g id="node5" class="node">
<title>Computer Architecture</title>
<g id="a_node5"><a xlink:title="Click to learn more about Computer Architecture">
<defs>
<linearGradient id="node5_l_11" gradientUnits="userSpaceOnUse" x1="89.25" y1="-574.5" x2="89.25" y2="-627" >
<stop offset="0" style="stop-color:#f8f9fa;stop-opacity:1.;"/>
<stop offset="1" style="stop-color:#f2cb05;stop-opacity:1.;"/>
</linearGradient>
</defs>
<polygon fill="url(#node5_l_11)" stroke="black" stroke-width="2" points="178.5,-627 0,-627 0,-574.5 178.5,-574.5 178.5,-627"/>
<text text-anchor="middle" x="89.25" y="-595.7" font-family="Arial" font-size="14.00" fill="#333333">Computer Architecture</text>
</a>
</g>
</g>
<!-- Computer Architecture&#45;&gt;Operating Systems -->
<g id="edge3" class="edge">
<title>Computer Architecture&#45;&gt;Operating Systems</title>
<path fill="none" stroke="#666666" stroke-width="2" d="M89.25,-573.8C89.25,-566.85 89.25,-559.18 89.25,-551.71"/>
<polygon fill="#666666" stroke="#666666" stroke-width="2" points="89.25,-541.92 93.75,-551.92 89.75,-544.48 89.75,-551.92 89.25,-551.92 88.75,-551.92 88.75,-544.48 84.75,-551.92 89.25,-541.92"/>
</g>
<!-- Big Data Technologies&#45;&gt;Data Integration -->
<g id="edge16" class="edge">
<title>Big Data Technologies&#45;&gt;Data Integration</title>
<path fill="none" stroke="#666666" stroke-width="2" d="M461.04,-380.1C474.42,-374.55 488.71,-369.01 502.25,-364.5 579.86,-338.67 670.82,-317 734.62,-303.16"/>
<polygon fill="#666666" stroke="#666666" stroke-width="2" points="744.22,-301.09 735.39,-307.59 741.82,-302.12 734.55,-303.68 734.45,-303.19 734.34,-302.7 741.61,-301.14 733.5,-298.79 744.22,-301.09"/>
</g>
<!-- Streaming Data Processing -->
<g id="node21" class="node">
<title>Streaming Data Processing</title>
<g id="a_node21"><a xlink:title="Click to learn more about Streaming Data Processing">
<defs>
<linearGradient id="node21_l_12" gradientUnits="userSpaceOnUse" x1="313.25" y1="-243" x2="313.25" y2="-328.5" >
<stop offset="0" style="stop-color:#f8f9fa;stop-opacity:1.;"/>
<stop offset="1" style="stop-color:#cee3f6;stop-opacity:1.;"/>
</linearGradient>
</defs>
<polygon fill="url(#node21_l_12)" stroke="black" stroke-width="2" points="572,-328.5 54.5,-328.5 54.5,-243 572,-243 572,-328.5"/>
<text text-anchor="middle" x="313.25" y="-297.2" font-family="Arial" font-size="14.00" fill="#333333">Streaming Data Processing</text>
<text text-anchor="middle" x="313.25" y="-280.7" font-family="Arial" font-size="14.00" fill="#333333">Prerequisite: [&#39;Big Data Technologies&#39;, &#39;Cloud Computing&#39;]</text>
<text text-anchor="middle" x="313.25" y="-264.2" font-family="Arial" font-size="14.00" fill="#333333">Topics: Apache Kafka, Apache Storm, Apache Flink, Google Cloud Dataflow</text>
</a>
</g>
</g>
<!-- Big Data Technologies&#45;&gt;Streaming Data Processing -->
<g id="edge23" class="edge">
<title>Big Data Technologies&#45;&gt;Streaming Data Processing</title>
<path fill="none" stroke="#666666" stroke-width="2" d="M383.5,-380.03C374.42,-367.97 363.31,-353.22 352.63,-339.04"/>
<polygon fill="#666666" stroke="#666666" stroke-width="2" points="346.8,-331.3 356.41,-336.58 348.74,-333.04 353.21,-338.98 352.82,-339.28 352.42,-339.58 347.94,-333.64 349.22,-341.99 346.8,-331.3"/>
</g>
<!-- DatabaseSystems -->
<g id="node7" class="node">
<title>DatabaseSystems</title>
<g id="a_node7"><a xlink:title="Click to learn more about DatabaseSystems">
<defs>
<linearGradient id="node7_l_13" gradientUnits="userSpaceOnUse" x1="403.25" y1="-486" x2="403.25" y2="-538.5" >
<stop offset="0" style="stop-color:#f8f9fa;stop-opacity:1.;"/>
<stop offset="1" style="stop-color:#f2cb05;stop-opacity:1.;"/>
</linearGradient>
</defs>
<polygon fill="url(#node7_l_13)" stroke="black" stroke-width="2" points="479.38,-538.5 327.12,-538.5 327.12,-486 479.38,-486 479.38,-538.5"/>
<text text-anchor="middle" x="403.25" y="-507.2" font-family="Arial" font-size="14.00" fill="#333333">DatabaseSystems</text>
</a>
</g>
</g>
<!-- DatabaseSystems&#45;&gt;Big Data Technologies -->
<g id="edge5" class="edge">
<title>DatabaseSystems&#45;&gt;Big Data Technologies</title>
<path fill="none" stroke="#666666" stroke-width="2" d="M403.25,-485.26C403.25,-473.55 403.25,-459.48 403.25,-446.6"/>
<polygon fill="#666666" stroke="#666666" stroke-width="2" points="403.25,-436.67 407.75,-446.67 403.75,-439.23 403.75,-446.67 403.25,-446.67 402.75,-446.67 402.75,-439.23 398.75,-446.67 403.25,-436.67"/>
</g>
<!-- Machine Learning -->
<g id="node8" class="node">
<title>Machine Learning</title>
<g id="a_node8"><a xlink:title="Click to learn more about Machine Learning">
<defs>
<linearGradient id="node8_l_14" gradientUnits="userSpaceOnUse" x1="1687.25" y1="-381" x2="1687.25" y2="-433.5" >
<stop offset="0" style="stop-color:#f8f9fa;stop-opacity:1.;"/>
<stop offset="1" style="stop-color:#f2cb05;stop-opacity:1.;"/>
</linearGradient>
</defs>
<polygon fill="url(#node8_l_14)" stroke="black" stroke-width="2" points="1760.75,-433.5 1613.75,-433.5 1613.75,-381 1760.75,-381 1760.75,-433.5"/>
<text text-anchor="middle" x="1687.25" y="-402.2" font-family="Arial" font-size="14.00" fill="#333333">Machine Learning</text>
</a>
</g>
</g>
<!-- Data Analytics -->
<g id="node19" class="node">
<title>Data Analytics</title>
<g id="a_node19"><a xlink:title="Click to learn more about Data Analytics">
<defs>
<linearGradient id="node19_l_15" gradientUnits="userSpaceOnUse" x1="1627.25" y1="-243" x2="1627.25" y2="-328.5" >
<stop offset="0" style="stop-color:#f8f9fa;stop-opacity:1.;"/>
<stop offset="1" style="stop-color:#cee3f6;stop-opacity:1.;"/>
</linearGradient>
</defs>
<polygon fill="url(#node19_l_15)" stroke="black" stroke-width="2" points="1938.12,-328.5 1316.38,-328.5 1316.38,-243 1938.12,-243 1938.12,-328.5"/>
<text text-anchor="middle" x="1627.25" y="-297.2" font-family="Arial" font-size="14.00" fill="#333333">Data Analytics</text>
<text text-anchor="middle" x="1627.25" y="-280.7" font-family="Arial" font-size="14.00" fill="#333333">Prerequisite: [&#39;Machine Learning&#39;, &#39;Data Visualization&#39;]</text>
<text text-anchor="middle" x="1627.25" y="-264.2" font-family="Arial" font-size="14.00" fill="#333333">Topics: Descriptive Analytics, Diagnostic Analytics, Predictive Analytics, PrescriptiveAnalytics</text>
</a>
</g>
</g>
<!-- Machine Learning&#45;&gt;Data Analytics -->
<g id="edge17" class="edge">
<title>Machine Learning&#45;&gt;Data Analytics</title>
<path fill="none" stroke="#666666" stroke-width="2" d="M1674.08,-380.03C1668.2,-368.32 1661.05,-354.07 1654.12,-340.26"/>
<polygon fill="#666666" stroke="#666666" stroke-width="2" points="1649.73,-331.53 1658.24,-338.44 1651.33,-333.59 1654.67,-340.24 1654.22,-340.46 1653.77,-340.69 1650.44,-334.04 1650.2,-342.48 1649.73,-331.53"/>
</g>
<!-- Linear Algebra -->
<g id="node9" class="node">
<title>Linear Algebra</title>
<g id="a_node9"><a xlink:title="Click to learn more about Linear Algebra">
<defs>
<linearGradient id="node9_l_16" gradientUnits="userSpaceOnUse" x1="1562.25" y1="-486" x2="1562.25" y2="-538.5" >
<stop offset="0" style="stop-color:#f8f9fa;stop-opacity:1.;"/>
<stop offset="1" style="stop-color:#f2cb05;stop-opacity:1.;"/>
</linearGradient>
</defs>
<polygon fill="url(#node9_l_16)" stroke="black" stroke-width="2" points="1626.38,-538.5 1498.12,-538.5 1498.12,-486 1626.38,-486 1626.38,-538.5"/>
<text text-anchor="middle" x="1562.25" y="-507.2" font-family="Arial" font-size="14.00" fill="#333333">Linear Algebra</text>
</a>
</g>
</g>
<!-- Linear Algebra&#45;&gt;Machine Learning -->
<g id="edge6" class="edge">
<title>Linear Algebra&#45;&gt;Machine Learning</title>
<path fill="none" stroke="#666666" stroke-width="2" d="M1593.79,-485.26C1609.78,-472.08 1629.39,-455.93 1646.5,-441.83"/>
<polygon fill="#666666" stroke="#666666" stroke-width="2" points="1653.84,-435.78 1648.98,-445.61 1652.18,-437.8 1646.44,-442.53 1646.12,-442.14 1645.8,-441.76 1651.54,-437.03 1643.26,-438.67 1653.84,-435.78"/>
</g>
<!-- Probability -->
<g id="node10" class="node">
<title>Probability</title>
<g id="a_node10"><a xlink:title="Click to learn more about Probability">
<defs>
<linearGradient id="node10_l_17" gradientUnits="userSpaceOnUse" x1="1695.25" y1="-486" x2="1695.25" y2="-538.5" >
<stop offset="0" style="stop-color:#f8f9fa;stop-opacity:1.;"/>
<stop offset="1" style="stop-color:#f2cb05;stop-opacity:1.;"/>
</linearGradient>
</defs>
<polygon fill="url(#node10_l_17)" stroke="black" stroke-width="2" points="1746.25,-538.5 1644.25,-538.5 1644.25,-486 1746.25,-486 1746.25,-538.5"/>
<text text-anchor="middle" x="1695.25" y="-507.2" font-family="Arial" font-size="14.00" fill="#333333">Probability</text>
</a>
</g>
</g>
<!-- Probability&#45;&gt;Machine Learning -->
<g id="edge7" class="edge">
<title>Probability&#45;&gt;Machine Learning</title>
<path fill="none" stroke="#666666" stroke-width="2" d="M1693.23,-485.26C1692.32,-473.55 1691.23,-459.48 1690.23,-446.6"/>
<polygon fill="#666666" stroke="#666666" stroke-width="2" points="1689.46,-436.66 1694.72,-446.28 1690.15,-439.18 1690.73,-446.59 1690.23,-446.63 1689.73,-446.67 1689.16,-439.26 1685.74,-446.98 1689.46,-436.66"/>
</g>
<!-- Calculus -->
<g id="node11" class="node">
<title>Calculus</title>
<g id="a_node11"><a xlink:title="Click to learn more about Calculus">
<defs>
<linearGradient id="node11_l_18" gradientUnits="userSpaceOnUse" x1="1809.25" y1="-486" x2="1809.25" y2="-538.5" >
<stop offset="0" style="stop-color:#f8f9fa;stop-opacity:1.;"/>
<stop offset="1" style="stop-color:#f2cb05;stop-opacity:1.;"/>
</linearGradient>
</defs>
<polygon fill="url(#node11_l_18)" stroke="black" stroke-width="2" points="1854.25,-538.5 1764.25,-538.5 1764.25,-486 1854.25,-486 1854.25,-538.5"/>
<text text-anchor="middle" x="1809.25" y="-507.2" font-family="Arial" font-size="14.00" fill="#333333">Calculus</text>
</a>
</g>
</g>
<!-- Calculus&#45;&gt;Machine Learning -->
<g id="edge8" class="edge">
<title>Calculus&#45;&gt;Machine Learning</title>
<path fill="none" stroke="#666666" stroke-width="2" d="M1778.46,-485.26C1763,-472.21 1744.08,-456.23 1727.48,-442.22"/>
<polygon fill="#666666" stroke="#666666" stroke-width="2" points="1719.89,-435.8 1730.43,-438.82 1722.17,-437.08 1727.85,-441.87 1727.53,-442.26 1727.21,-442.64 1721.52,-437.84 1724.63,-445.69 1719.89,-435.8"/>
</g>
<!-- Data Visualization&#45;&gt;Data Analytics -->
<g id="edge18" class="edge">
<title>Data Visualization&#45;&gt;Data Analytics</title>
<path fill="none" stroke="#666666" stroke-width="2" d="M1460.21,-380.03C1483.67,-366.92 1512.83,-350.64 1540.18,-335.37"/>
<polygon fill="#666666" stroke="#666666" stroke-width="2" points="1548.84,-330.54 1542.3,-339.34 1546.84,-332.22 1540.35,-335.85 1540.1,-335.41 1539.86,-334.98 1546.35,-331.35 1537.91,-331.48 1548.84,-330.54"/>
</g>
<!-- Databasesystems -->
<g id="node13" class="node">
<title>Databasesystems</title>
<g id="a_node13"><a xlink:title="Click to learn more about Databasesystems">
<defs>
<linearGradient id="node13_l_19" gradientUnits="userSpaceOnUse" x1="1405.25" y1="-486" x2="1405.25" y2="-538.5" >
<stop offset="0" style="stop-color:#f8f9fa;stop-opacity:1.;"/>
<stop offset="1" style="stop-color:#f2cb05;stop-opacity:1.;"/>
</linearGradient>
</defs>
<polygon fill="url(#node13_l_19)" stroke="black" stroke-width="2" points="1480.25,-538.5 1330.25,-538.5 1330.25,-486 1480.25,-486 1480.25,-538.5"/>
<text text-anchor="middle" x="1405.25" y="-507.2" font-family="Arial" font-size="14.00" fill="#333333">Databasesystems</text>
</a>
</g>
</g>
<!-- Databasesystems&#45;&gt;Data Visualization -->
<g id="edge10" class="edge">
<title>Databasesystems&#45;&gt;Data Visualization</title>
<path fill="none" stroke="#666666" stroke-width="2" d="M1407.27,-485.26C1408.18,-473.55 1409.27,-459.48 1410.27,-446.6"/>
<polygon fill="#666666" stroke="#666666" stroke-width="2" points="1411.04,-436.66 1414.76,-446.98 1411.34,-439.26 1410.77,-446.67 1410.27,-446.63 1409.77,-446.59 1410.35,-439.18 1405.78,-446.28 1411.04,-436.66"/>
</g>
<!-- Cloud Computing&#45;&gt;Streaming Data Processing -->
<g id="edge24" class="edge">
<title>Cloud Computing&#45;&gt;Streaming Data Processing</title>
<path fill="none" stroke="#666666" stroke-width="2" d="M242.22,-380.03C251.4,-367.97 262.64,-353.22 273.43,-339.04"/>
<polygon fill="#666666" stroke="#666666" stroke-width="2" points="279.33,-331.29 276.86,-341.97 278.18,-333.63 273.67,-339.55 273.28,-339.24 272.88,-338.94 277.38,-333.02 269.7,-336.52 279.33,-331.29"/>
</g>
<!-- Networking -->
<g id="node15" class="node">
<title>Networking</title>
<g id="a_node15"><a xlink:title="Click to learn more about Networking">
<defs>
<linearGradient id="node15_l_20" gradientUnits="userSpaceOnUse" x1="239.25" y1="-486" x2="239.25" y2="-538.5" >
<stop offset="0" style="stop-color:#f8f9fa;stop-opacity:1.;"/>
<stop offset="1" style="stop-color:#f2cb05;stop-opacity:1.;"/>
</linearGradient>
</defs>
<polygon fill="url(#node15_l_20)" stroke="black" stroke-width="2" points="292.12,-538.5 186.38,-538.5 186.38,-486 292.12,-486 292.12,-538.5"/>
<text text-anchor="middle" x="239.25" y="-507.2" font-family="Arial" font-size="14.00" fill="#333333">Networking</text>
</a>
</g>
</g>
<!-- Networking&#45;&gt;Cloud Computing -->
<g id="edge12" class="edge">
<title>Networking&#45;&gt;Cloud Computing</title>
<path fill="none" stroke="#666666" stroke-width="2" d="M234.96,-485.26C233.01,-473.43 230.66,-459.19 228.51,-446.19"/>
<polygon fill="#666666" stroke="#666666" stroke-width="2" points="226.94,-436.64 233,-445.77 227.85,-439.08 229.06,-446.42 228.56,-446.5 228.07,-446.59 226.86,-439.25 224.12,-447.24 226.94,-436.64"/>
</g>
<!-- Data Warehousing&#45;&gt;Data Quality and Governance -->
<g id="edge14" class="edge">
<title>Data Warehousing&#45;&gt;Data Quality and Governance</title>
<path fill="none" stroke="#666666" stroke-width="2" d="M894.1,-120.61C911.14,-111.4 929.28,-101.59 946.7,-92.17"/>
<polygon fill="#666666" stroke="#666666" stroke-width="2" points="955.29,-87.53 948.63,-96.24 953.27,-89.19 946.73,-92.73 946.49,-92.29 946.25,-91.85 952.79,-88.31 944.35,-88.33 955.29,-87.53"/>
</g>
<!-- Data Integration&#45;&gt;Data Warehousing -->
<g id="edge22" class="edge">
<title>Data Integration&#45;&gt;Data Warehousing</title>
<path fill="none" stroke="#666666" stroke-width="2" d="M815.25,-258.53C815.25,-247.16 815.25,-233.41 815.25,-220"/>
<polygon fill="#666666" stroke="#666666" stroke-width="2" points="815.25,-210.29 819.75,-220.29 815.75,-212.85 815.75,-220.29 815.25,-220.29 814.75,-220.29 814.75,-212.85 810.75,-220.29 815.25,-210.29"/>
</g>
</g>
</svg>
