<?xml version="1.0" encoding="UTF-8" standalone="no"?>
<!DOCTYPE svg PUBLIC "-//W3C//DTD SVG 1.1//EN"
 "http://www.w3.org/Graphics/SVG/1.1/DTD/svg11.dtd">
<!-- Generated by graphviz version 9.0.0 (20230911.1827)
 -->
<!-- Pages: 1 -->
<svg width="313pt" height="415pt"
 viewBox="0.00 0.00 313.00 414.50" xmlns="http://www.w3.org/2000/svg" xmlns:xlink="http://www.w3.org/1999/xlink">
<g id="graph0" class="graph" transform="scale(1 1) rotate(0) translate(4 410.5)">
<!-- Python Basics -->
<g id="node1" class="node">
<title>Python Basics</title>
<g id="a_node1"><a xlink:title="Click to learn more about Python Basics">
<defs>
<linearGradient id="node1_l_0" gradientUnits="userSpaceOnUse" x1="152.5" y1="-354" x2="152.5" y2="-406.5" >
<stop offset="0" style="stop-color:#f8f9fa;stop-opacity:1.;"/>
<stop offset="1" style="stop-color:#f2cb05;stop-opacity:1.;"/>
</linearGradient>
</defs>
<polygon fill="url(#node1_l_0)" stroke="black" stroke-width="2" points="215.5,-406.5 89.5,-406.5 89.5,-354 215.5,-354 215.5,-406.5"/>
<text text-anchor="middle" x="152.5" y="-375.2" font-family="Arial" font-size="14.00" fill="#333333">Python Basics</text>
</a>
</g>
</g>
<!-- Intermediate Python -->
<g id="node2" class="node">
<title>Intermediate Python</title>
<g id="a_node2"><a xlink:title="Click to learn more about Intermediate Python">
<defs>
<linearGradient id="node2_l_1" gradientUnits="userSpaceOnUse" x1="152.5" y1="-265.5" x2="152.5" y2="-318" >
<stop offset="0" style="stop-color:#f8f9fa;stop-opacity:1.;"/>
<stop offset="1" style="stop-color:#f2cb05;stop-opacity:1.;"/>
</linearGradient>
</defs>
<polygon fill="url(#node2_l_1)" stroke="black" stroke-width="2" points="233.88,-318 71.12,-318 71.12,-265.5 233.88,-265.5 233.88,-318"/>
<text text-anchor="middle" x="152.5" y="-286.7" font-family="Arial" font-size="14.00" fill="#333333">Intermediate Python</text>
</a>
</g>
</g>
<!-- Python Basics&#45;&gt;Intermediate Python -->
<g id="edge1" class="edge">
<title>Python Basics&#45;&gt;Intermediate Python</title>
<path fill="none" stroke="#666666" stroke-width="2" d="M152.5,-353.3C152.5,-346.35 152.5,-338.68 152.5,-331.21"/>
<polygon fill="#666666" stroke="#666666" stroke-width="2" points="152.5,-321.42 157,-331.42 153,-323.98 153,-331.42 152.5,-331.42 152,-331.42 152,-323.98 148,-331.42 152.5,-321.42"/>
</g>
<!-- Advanced Python -->
<g id="node3" class="node">
<title>Advanced Python</title>
<g id="a_node3"><a xlink:title="Click to learn more about Advanced Python">
<defs>
<linearGradient id="node3_l_2" gradientUnits="userSpaceOnUse" x1="73.5" y1="-177" x2="73.5" y2="-229.5" >
<stop offset="0" style="stop-color:#f8f9fa;stop-opacity:1.;"/>
<stop offset="1" style="stop-color:#cee3f6;stop-opacity:1.;"/>
</linearGradient>
</defs>
<polygon fill="url(#node3_l_2)" stroke="black" stroke-width="2" points="147,-229.5 0,-229.5 0,-177 147,-177 147,-229.5"/>
<text text-anchor="middle" x="73.5" y="-198.2" font-family="Arial" font-size="14.00" fill="#333333">Advanced Python</text>
</a>
</g>
</g>
<!-- Intermediate Python&#45;&gt;Advanced Python -->
<g id="edge2" class="edge">
<title>Intermediate Python&#45;&gt;Advanced Python</title>
<path fill="none" stroke="#666666" stroke-width="2" d="M128.8,-264.8C121.52,-256.83 113.39,-247.93 105.65,-239.45"/>
<polygon fill="#666666" stroke="#666666" stroke-width="2" points="99.1,-232.28 109.17,-236.63 101.2,-233.84 106.22,-239.33 105.85,-239.67 105.48,-240 100.46,-234.51 102.52,-242.7 99.1,-232.28"/>
</g>
<!-- Data Structures -->
<g id="node4" class="node">
<title>Data Structures</title>
<g id="a_node4"><a xlink:title="Click to learn more about Data Structures">
<defs>
<linearGradient id="node4_l_3" gradientUnits="userSpaceOnUse" x1="231.5" y1="-177" x2="231.5" y2="-229.5" >
<stop offset="0" style="stop-color:#f8f9fa;stop-opacity:1.;"/>
<stop offset="1" style="stop-color:#f2cb05;stop-opacity:1.;"/>
</linearGradient>
</defs>
<polygon fill="url(#node4_l_3)" stroke="black" stroke-width="2" points="298.25,-229.5 164.75,-229.5 164.75,-177 298.25,-177 298.25,-229.5"/>
<text text-anchor="middle" x="231.5" y="-198.2" font-family="Arial" font-size="14.00" fill="#333333">Data Structures</text>
</a>
</g>
</g>
<!-- Intermediate Python&#45;&gt;Data Structures -->
<g id="edge3" class="edge">
<title>Intermediate Python&#45;&gt;Data Structures</title>
<path fill="none" stroke="#666666" stroke-width="2" d="M176.2,-264.8C183.48,-256.83 191.61,-247.93 199.35,-239.45"/>
<polygon fill="#666666" stroke="#666666" stroke-width="2" points="205.9,-232.28 202.48,-242.7 204.54,-234.51 199.52,-240 199.15,-239.67 198.78,-239.33 203.8,-233.84 195.83,-236.63 205.9,-232.28"/>
</g>
<!-- Algorithms -->
<g id="node5" class="node">
<title>Algorithms</title>
<g id="a_node5"><a xlink:title="Click to learn more about Algorithms">
<defs>
<linearGradient id="node5_l_4" gradientUnits="userSpaceOnUse" x1="191.5" y1="-88.5" x2="191.5" y2="-141" >
<stop offset="0" style="stop-color:#f8f9fa;stop-opacity:1.;"/>
<stop offset="1" style="stop-color:#f2cb05;stop-opacity:1.;"/>
</linearGradient>
</defs>
<polygon fill="url(#node5_l_4)" stroke="black" stroke-width="2" points="243.25,-141 139.75,-141 139.75,-88.5 243.25,-88.5 243.25,-141"/>
<text text-anchor="middle" x="191.5" y="-109.7" font-family="Arial" font-size="14.00" fill="#333333">Algorithms</text>
</a>
</g>
</g>
<!-- Data Structures&#45;&gt;Algorithms -->
<g id="edge4" class="edge">
<title>Data Structures&#45;&gt;Algorithms</title>
<path fill="none" stroke="#666666" stroke-width="2" d="M219.5,-176.3C216.13,-169.01 212.39,-160.93 208.78,-153.12"/>
<polygon fill="#666666" stroke="#666666" stroke-width="2" points="204.65,-144.2 212.94,-151.38 206.18,-146.31 209.31,-153.06 208.85,-153.27 208.4,-153.48 205.28,-146.73 204.77,-155.16 204.65,-144.2"/>
</g>
<!-- Machine Learning -->
<g id="node6" class="node">
<title>Machine Learning</title>
<g id="a_node6"><a xlink:title="Click to learn more about Machine Learning">
<defs>
<linearGradient id="node6_l_5" gradientUnits="userSpaceOnUse" x1="231.5" y1="0" x2="231.5" y2="-52.5" >
<stop offset="0" style="stop-color:#f8f9fa;stop-opacity:1.;"/>
<stop offset="1" style="stop-color:#cee3f6;stop-opacity:1.;"/>
</linearGradient>
</defs>
<polygon fill="url(#node6_l_5)" stroke="black" stroke-width="2" points="305,-52.5 158,-52.5 158,0 305,0 305,-52.5"/>
<text text-anchor="middle" x="231.5" y="-21.2" font-family="Arial" font-size="14.00" fill="#333333">Machine Learning</text>
</a>
</g>
</g>
<!-- Data Structures&#45;&gt;Machine Learning -->
<g id="edge5" class="edge">
<title>Data Structures&#45;&gt;Machine Learning</title>
<path fill="none" stroke="#666666" stroke-width="2" d="M242.55,-176.21C246.53,-165.51 250.52,-152.86 252.5,-141 256.34,-117.98 256.34,-111.52 252.5,-88.5 251.2,-80.71 249.04,-72.59 246.58,-64.9"/>
<polygon fill="#666666" stroke="#666666" stroke-width="2" points="243.35,-55.59 250.88,-63.56 244.66,-57.85 247.1,-64.87 246.62,-65.04 246.15,-65.2 243.72,-58.17 242.37,-66.51 243.35,-55.59"/>
</g>
<!-- Algorithms&#45;&gt;Machine Learning -->
<g id="edge6" class="edge">
<title>Algorithms&#45;&gt;Machine Learning</title>
<path fill="none" stroke="#666666" stroke-width="2" d="M203.5,-87.8C206.87,-80.51 210.61,-72.43 214.22,-64.62"/>
<polygon fill="#666666" stroke="#666666" stroke-width="2" points="218.35,-55.7 218.23,-66.66 217.72,-58.23 214.6,-64.98 214.15,-64.77 213.69,-64.56 216.82,-57.81 210.06,-62.88 218.35,-55.7"/>
</g>
</g>
</svg>
