<?xml version="1.0" encoding="UTF-8" standalone="no"?>
<!DOCTYPE svg PUBLIC "-//W3C//DTD SVG 1.1//EN"
 "http://www.w3.org/Graphics/SVG/1.1/DTD/svg11.dtd">
<!-- Generated by graphviz version 9.0.0 (20230911.1827)
 -->
<!-- Pages: 1 -->
<svg width="254pt" height="332pt"
 viewBox="0.00 0.00 253.84 332.00" xmlns="http://www.w3.org/2000/svg" xmlns:xlink="http://www.w3.org/1999/xlink">
<g id="graph0" class="graph" transform="scale(1 1) rotate(0) translate(4 328)">
<polygon fill="#f7f7f7" stroke="none" points="-4,4 -4,-328 249.84,-328 249.84,4 -4,4"/>
<!-- Python Basics -->
<g id="node1" class="node">
<title>Python Basics</title>
<ellipse fill="#f2cb05" stroke="black" cx="119.38" cy="-306" rx="56.26" ry="18"/>
<text text-anchor="middle" x="119.38" y="-301.35" font-family="Arial" font-size="12.00">Python Basics</text>
</g>
<!-- Intermediate Python -->
<g id="node2" class="node">
<title>Intermediate Python</title>
<ellipse fill="#f2cb05" stroke="black" cx="119.38" cy="-234" rx="74.03" ry="18"/>
<text text-anchor="middle" x="119.38" y="-229.35" font-family="Arial" font-size="12.00">Intermediate Python</text>
</g>
<!-- Python Basics&#45;&gt;Intermediate Python -->
<g id="edge1" class="edge">
<title>Python Basics&#45;&gt;Intermediate Python</title>
<path fill="none" stroke="#333333" stroke-width="2" d="M119.38,-287.7C119.38,-280.83 119.38,-272.73 119.38,-264.97"/>
<polygon fill="#333333" stroke="#333333" stroke-width="2" points="122.88,-265.13 119.38,-255.13 115.88,-265.13 122.88,-265.13"/>
</g>
<!-- Advanced Python -->
<g id="node3" class="node">
<title>Advanced Python</title>
<polygon fill="#a8d8ea" stroke="black" points="106.75,-180 0,-180 0,-144 106.75,-144 106.75,-180"/>
<text text-anchor="middle" x="53.38" y="-157.35" font-family="Arial" font-size="12.00">Advanced Python</text>
</g>
<!-- Intermediate Python&#45;&gt;Advanced Python -->
<g id="edge2" class="edge">
<title>Intermediate Python&#45;&gt;Advanced Python</title>
<path fill="none" stroke="#333333" stroke-width="2" d="M103.4,-216.05C95.89,-208.09 86.76,-198.41 78.37,-189.51"/>
<polygon fill="#333333" stroke="#333333" stroke-width="2" points="81.15,-187.35 71.74,-182.48 76.05,-192.15 81.15,-187.35"/>
</g>
<!-- Data Structures -->
<g id="node4" class="node">
<title>Data Structures</title>
<ellipse fill="#f2cb05" stroke="black" cx="185.38" cy="-162" rx="60.47" ry="18"/>
<text text-anchor="middle" x="185.38" y="-157.35" font-family="Arial" font-size="12.00">Data Structures</text>
</g>
<!-- Intermediate Python&#45;&gt;Data Structures -->
<g id="edge3" class="edge">
<title>Intermediate Python&#45;&gt;Data Structures</title>
<path fill="none" stroke="#333333" stroke-width="2" d="M135.35,-216.05C142.97,-207.97 152.26,-198.12 160.76,-189.11"/>
<polygon fill="#333333" stroke="#333333" stroke-width="2" points="163.16,-191.67 167.47,-181.99 158.06,-186.87 163.16,-191.67"/>
</g>
<!-- Algorithms -->
<g id="node5" class="node">
<title>Algorithms</title>
<ellipse fill="#f2cb05" stroke="black" cx="148.38" cy="-90" rx="44.57" ry="18"/>
<text text-anchor="middle" x="148.38" y="-85.35" font-family="Arial" font-size="12.00">Algorithms</text>
</g>
<!-- Data Structures&#45;&gt;Algorithms -->
<g id="edge4" class="edge">
<title>Data Structures&#45;&gt;Algorithms</title>
<path fill="none" stroke="#333333" stroke-width="2" d="M176.42,-144.05C172.46,-136.57 167.71,-127.58 163.25,-119.14"/>
<polygon fill="#333333" stroke="#333333" stroke-width="2" points="166.43,-117.67 158.66,-110.47 160.24,-120.94 166.43,-117.67"/>
</g>
<!-- Machine Learning -->
<g id="node6" class="node">
<title>Machine Learning</title>
<polygon fill="#a8d8ea" stroke="black" points="238.88,-36 129.88,-36 129.88,0 238.88,0 238.88,-36"/>
<text text-anchor="middle" x="184.38" y="-13.35" font-family="Arial" font-size="12.00">Machine Learning</text>
</g>
<!-- Data Structures&#45;&gt;Machine Learning -->
<g id="edge5" class="edge">
<title>Data Structures&#45;&gt;Machine Learning</title>
<path fill="none" stroke="#333333" stroke-width="2" d="M192.44,-143.67C196.21,-133.47 200.46,-120.22 202.38,-108 204.85,-92.19 204.98,-87.79 202.38,-72 201.08,-64.14 198.76,-55.87 196.22,-48.27"/>
<polygon fill="#333333" stroke="#333333" stroke-width="2" points="199.6,-47.34 192.89,-39.14 193.02,-49.73 199.6,-47.34"/>
</g>
<!-- Algorithms&#45;&gt;Machine Learning -->
<g id="edge6" class="edge">
<title>Algorithms&#45;&gt;Machine Learning</title>
<path fill="none" stroke="#333333" stroke-width="2" d="M157.09,-72.05C160.84,-64.77 165.32,-56.05 169.56,-47.8"/>
<polygon fill="#333333" stroke="#333333" stroke-width="2" points="172.65,-49.46 174.11,-38.97 166.42,-46.26 172.65,-49.46"/>
</g>
</g>
</svg>
