<?xml version="1.0" encoding="UTF-8" standalone="no"?>
<!DOCTYPE svg PUBLIC "-//W3C//DTD SVG 1.1//EN"
 "http://www.w3.org/Graphics/SVG/1.1/DTD/svg11.dtd">
<!-- Generated by graphviz version 9.0.0 (20230911.1827)
 -->
<!-- Pages: 1 -->
<svg width="134pt" height="332pt"
 viewBox="0.00 0.00 134.00 332.00" xmlns="http://www.w3.org/2000/svg" xmlns:xlink="http://www.w3.org/1999/xlink">
<g id="graph0" class="graph" transform="scale(1 1) rotate(0) translate(4 328)">
<!-- Python Basics -->
<g id="node1" class="node">
<title>Python Basics</title>
<g id="a_node1"><a xlink:title="Click to learn more about Python Basics">
<defs>
<linearGradient id="node1_l_0" gradientUnits="userSpaceOnUse" x1="36" y1="-306" x2="90" y2="-306" >
<stop offset="0" style="stop-color:#f8f9fa;stop-opacity:1.;"/>
<stop offset="1" style="stop-color:#f2cb05;stop-opacity:1.;"/>
</linearGradient>
</defs>
<polygon fill="url(#node1_l_0)" stroke="black" stroke-width="2" points="90,-324 36,-324 36,-288 90,-288 90,-324"/>
<polygon fill="none" stroke="black" points="13.88,-291.75 13.88,-320.25 112.12,-320.25 112.12,-291.75 13.88,-291.75"/>
<text text-anchor="start" x="19.88" y="-300.95" font-family="Arial" font-size="14.00" fill="#333333">PythonBasics</text>
</a>
</g>
</g>
<!-- Intermediate Python -->
<g id="node2" class="node">
<title>Intermediate Python</title>
<g id="a_node2"><a xlink:title="Click to learn more about Intermediate Python">
<defs>
<linearGradient id="node2_l_1" gradientUnits="userSpaceOnUse" x1="36" y1="-234" x2="90" y2="-234" >
<stop offset="0" style="stop-color:#f8f9fa;stop-opacity:1.;"/>
<stop offset="1" style="stop-color:#f2cb05;stop-opacity:1.;"/>
</linearGradient>
</defs>
<polygon fill="url(#node2_l_1)" stroke="black" stroke-width="2" points="90,-252 36,-252 36,-216 90,-216 90,-252"/>
<polygon fill="none" stroke="black" points="-4.5,-219.75 -4.5,-248.25 130.5,-248.25 130.5,-219.75 -4.5,-219.75"/>
<text text-anchor="start" x="1.5" y="-228.95" font-family="Arial" font-size="14.00" fill="#333333">IntermediatePython</text>
</a>
</g>
</g>
<!-- Python Basics&#45;&gt;Intermediate Python -->
<g id="edge1" class="edge">
<title>Python Basics&#45;&gt;Intermediate Python</title>
<path fill="none" stroke="#cccccc" stroke-width="2" d="M63,-287.34C63,-280.59 63,-272.69 63,-265.11"/>
<polygon fill="#cccccc" stroke="#cccccc" stroke-width="2" points="63,-255.34 67.5,-265.34 63.5,-257.9 63.5,-265.34 63,-265.34 62.5,-265.34 62.5,-257.9 58.5,-265.34 63,-255.34"/>
</g>
<!-- Advanced Python -->
<g id="node3" class="node">
<title>Advanced Python</title>
<g id="a_node3"><a xlink:title="Click to learn more about Advanced Python">
<defs>
<linearGradient id="node3_l_2" gradientUnits="userSpaceOnUse" x1="0" y1="-162" x2="54" y2="-162" >
<stop offset="0" style="stop-color:#f8f9fa;stop-opacity:1.;"/>
<stop offset="1" style="stop-color:#cee3f6;stop-opacity:1.;"/>
</linearGradient>
</defs>
<polygon fill="url(#node3_l_2)" stroke="black" stroke-width="2" points="54,-180 0,-180 0,-144 54,-144 54,-180"/>
<polygon fill="none" stroke="black" points="-32.62,-147.75 -32.62,-176.25 86.62,-176.25 86.62,-147.75 -32.62,-147.75"/>
<text text-anchor="start" x="-26.62" y="-156.95" font-family="Arial" font-size="14.00" fill="#333333">AdvancedPython</text>
</a>
</g>
</g>
<!-- Intermediate Python&#45;&gt;Advanced Python -->
<g id="edge2" class="edge">
<title>Intermediate Python&#45;&gt;Advanced Python</title>
<path fill="none" stroke="#cccccc" stroke-width="2" d="M53.92,-215.34C50.23,-208.18 45.89,-199.73 41.77,-191.73"/>
<polygon fill="#cccccc" stroke="#cccccc" stroke-width="2" points="37.32,-183.07 45.9,-189.9 38.94,-185.12 42.34,-191.73 41.89,-191.96 41.45,-192.19 38.05,-185.58 37.89,-194.02 37.32,-183.07"/>
</g>
<!-- Data Structures -->
<g id="node4" class="node">
<title>Data Structures</title>
<g id="a_node4"><a xlink:title="Click to learn more about Data Structures">
<defs>
<linearGradient id="node4_l_3" gradientUnits="userSpaceOnUse" x1="72" y1="-162" x2="126" y2="-162" >
<stop offset="0" style="stop-color:#f8f9fa;stop-opacity:1.;"/>
<stop offset="1" style="stop-color:#f2cb05;stop-opacity:1.;"/>
</linearGradient>
</defs>
<polygon fill="url(#node4_l_3)" stroke="black" stroke-width="2" points="126,-180 72,-180 72,-144 126,-144 126,-180"/>
<polygon fill="none" stroke="black" points="46.12,-147.75 46.12,-176.25 151.88,-176.25 151.88,-147.75 46.12,-147.75"/>
<text text-anchor="start" x="52.12" y="-156.95" font-family="Arial" font-size="14.00" fill="#333333">DataStructures</text>
</a>
</g>
</g>
<!-- Intermediate Python&#45;&gt;Data Structures -->
<g id="edge3" class="edge">
<title>Intermediate Python&#45;&gt;Data Structures</title>
<path fill="none" stroke="#cccccc" stroke-width="2" d="M72.08,-215.34C75.77,-208.18 80.11,-199.73 84.23,-191.73"/>
<polygon fill="#cccccc" stroke="#cccccc" stroke-width="2" points="88.68,-183.07 88.11,-194.02 87.95,-185.58 84.55,-192.19 84.11,-191.96 83.66,-191.73 87.06,-185.12 80.1,-189.9 88.68,-183.07"/>
</g>
<!-- Algorithms -->
<g id="node5" class="node">
<title>Algorithms</title>
<g id="a_node5"><a xlink:title="Click to learn more about Algorithms">
<defs>
<linearGradient id="node5_l_4" gradientUnits="userSpaceOnUse" x1="44" y1="-90" x2="98" y2="-90" >
<stop offset="0" style="stop-color:#f8f9fa;stop-opacity:1.;"/>
<stop offset="1" style="stop-color:#f2cb05;stop-opacity:1.;"/>
</linearGradient>
</defs>
<polygon fill="url(#node5_l_4)" stroke="black" stroke-width="2" points="98,-108 44,-108 44,-72 98,-72 98,-108"/>
<polygon fill="none" stroke="black" points="31.25,-75.75 31.25,-104.25 110.75,-104.25 110.75,-75.75 31.25,-75.75"/>
<text text-anchor="start" x="37.25" y="-84.95" font-family="Arial" font-size="14.00" fill="#333333">Algorithms</text>
</a>
</g>
</g>
<!-- Data Structures&#45;&gt;Algorithms -->
<g id="edge4" class="edge">
<title>Data Structures&#45;&gt;Algorithms</title>
<path fill="none" stroke="#cccccc" stroke-width="2" d="M91.93,-143.34C89.14,-136.34 85.85,-128.12 82.71,-120.28"/>
<polygon fill="#cccccc" stroke="#cccccc" stroke-width="2" points="79.07,-111.16 86.96,-118.78 80.48,-113.36 83.24,-120.26 82.78,-120.45 82.32,-120.63 79.55,-113.73 78.6,-122.12 79.07,-111.16"/>
</g>
<!-- Machine Learning -->
<g id="node6" class="node">
<title>Machine Learning</title>
<g id="a_node6"><a xlink:title="Click to learn more about Machine Learning">
<defs>
<linearGradient id="node6_l_5" gradientUnits="userSpaceOnUse" x1="71" y1="-18" x2="125" y2="-18" >
<stop offset="0" style="stop-color:#f8f9fa;stop-opacity:1.;"/>
<stop offset="1" style="stop-color:#cee3f6;stop-opacity:1.;"/>
</linearGradient>
</defs>
<polygon fill="url(#node6_l_5)" stroke="black" stroke-width="2" points="125,-36 71,-36 71,0 125,0 125,-36"/>
<polygon fill="none" stroke="black" points="38.38,-3.75 38.38,-32.25 157.62,-32.25 157.62,-3.75 38.38,-3.75"/>
<text text-anchor="start" x="44.38" y="-12.95" font-family="Arial" font-size="14.00" fill="#333333">MachineLearning</text>
</a>
</g>
</g>
<!-- Data Structures&#45;&gt;Machine Learning -->
<g id="edge5" class="edge">
<title>Data Structures&#45;&gt;Machine Learning</title>
<path fill="none" stroke="#cccccc" stroke-width="2" d="M102.33,-143.41C104.11,-133.13 106.11,-119.88 107,-108 108.2,-92.04 108.34,-87.94 107,-72 106.36,-64.37 105.2,-56.2 103.93,-48.6"/>
<polygon fill="#cccccc" stroke="#cccccc" stroke-width="2" points="102.18,-38.97 108.4,-48.01 103.13,-41.4 104.46,-48.72 103.97,-48.81 103.48,-48.9 102.15,-41.58 99.54,-49.61 102.18,-38.97"/>
</g>
<!-- Algorithms&#45;&gt;Machine Learning -->
<g id="edge6" class="edge">
<title>Algorithms&#45;&gt;Machine Learning</title>
<path fill="none" stroke="#cccccc" stroke-width="2" d="M77.81,-71.34C80.51,-64.34 83.68,-56.12 86.71,-48.28"/>
<polygon fill="#cccccc" stroke="#cccccc" stroke-width="2" points="90.22,-39.18 90.82,-50.12 89.76,-41.75 87.09,-48.69 86.62,-48.51 86.15,-48.33 88.83,-41.39 82.42,-46.89 90.22,-39.18"/>
</g>
</g>
</svg>
